<svg xmlns="http://www.w3.org/2000/svg" viewBox="0 0 512 512" width="512" height="512">
  <defs>
    <linearGradient id="grad" x1="0%" y1="0%" x2="100%" y2="100%">
      <stop offset="0%" style="stop-color:#a78bfa;stop-opacity:1" />
      <stop offset="100%" style="stop-color:#8b5cf6;stop-opacity:1" />
    </linearGradient>
    <linearGradient id="bg" x1="0%" y1="0%" x2="0%" y2="100%">
      <stop offset="0%" style="stop-color:#1e1b4b;stop-opacity:1" />
      <stop offset="100%" style="stop-color:#0f0728;stop-opacity:1" />
    </linearGradient>
  </defs>
  <!-- Background -->
  <rect width="512" height="512" rx="128" fill="url(#bg)" />
  
  <!-- Outer Glow Glow -->
  <circle cx="256" cy="256" r="180" fill="none" stroke="url(#grad)" stroke-width="4" opacity="0.15" />
  <circle cx="256" cy="256" r="140" fill="none" stroke="url(#grad)" stroke-width="8" opacity="0.3" />

  <!-- Music Notes / Wave -->
  <g transform="translate(136, 116)" fill="url(#grad)">
    <path d="M192 0L64 32v144c-7.6-4.9-18.2-8-32-8C14.3 168 0 182.3 0 200s14.3 32 32 32 32-14.3 32-32V80l96-24v112c-7.6-4.9-18.2-8-32-8-17.7 0-32 14.3-32 32s14.3 32 32 32 32-14.3 32-32V0z"/>
  </g>
</svg>
